PathFileType	4	(X/Y/Z)	Patient4_TMGait_0pt7_02_left_36.trc.trc
DataRate	CameraRate	NumFrames	NumMarkers	Units	OrigDataRate	OrigDataStartFrame	OrigNumFrames
88.050314465409	88.050314465409	4	33	mm	88.050314465409	124	       141
Frame#	Time	Sacral			L.Shoulder			Chest			R.Shoulder			Neck			R.ASIS			L.ASIS			R.Thigh.Superior			R.Thigh.Lateral			R.Thigh.Inferior			R.Patella			L.Thigh.Superior			L.Thigh.Lateral			L.Thigh.Inferior			L.Patella			L.Shank.Superior			L.Shank.Lateral			L.Shank.Inferior			R.Shank.Superior			R.Shank.Lateral			R.Shank.Inferior			R.Heel			R.Midfoot.Superior			R.Midfoot.Lateral			R.Toe			L.Heel			L.Midfoot.Lateral			L.Midfoot.Superior			L.Toe			L.Elbow			L.Wrist			R.Elbow			R.Wrist			
		X1	Y1	Z1	X2	Y2	Z2	X3	Y3	Z3	X4	Y4	Z4	X5	Y5	Z5	X6	Y6	Z6	X7	Y7	Z7	X8	Y8	Z8	X9	Y9	Z9	X10	Y10	Z10	X11	Y11	Z11	X12	Y12	Z12	X13	Y13	Z13	X14	Y14	Z14	X15	Y15	Z15	X16	Y16	Z16	X17	Y17	Z17	X18	Y18	Z18	X19	Y19	Z19	X20	Y20	Z20	X21	Y21	Z21	X22	Y22	Z22	X23	Y23	Z23	X24	Y24	Z24	X25	Y25	Z25	X26	Y26	Z26	X27	Y27	Z27	X28	Y28	Z28	X29	Y29	Z29	X30	Y30	Z30	X31	Y31	Z31	X32	Y32	Z32	X33	Y33	Z33	

124	42.586928571429	761.308534182972	1016.465048898294	486.071032041157	979.785844855046	1401.908729447782	272.561355200467	1086.367204364620	1327.954606121687	430.251834965621	1028.642565146322	1428.635410702220	599.694946509500	987.913200523801	1472.302178480266	424.508612769757	975.673068731541	925.989026627806	605.099232820548	964.988084496227	932.429166981335	329.563268338572	972.183136444763	715.585006718342	584.206926964347	866.637802235164	627.568929446322	645.313182448288	928.726933881370	558.393226918149	566.925193236855	909.034042154093	473.730601572119	572.737751090094	1036.166959751614	768.596507647338	378.685762829768	1004.017883167993	639.923764867787	294.335814253738	1102.249741872519	585.011634652039	369.226956780707	1128.671719947905	513.645871654313	367.879318269379	1104.896708591254	437.951618611814	353.326226368386	1030.444945174886	316.758397262314	291.909717245179	1097.262503234118	207.869192537598	355.657481436557	868.709540542378	390.604955912216	582.192266495136	782.254915790382	301.182553228285	647.714390305868	806.553119247789	199.773038251560	586.185602800490	652.293424830194	43.950408956755	559.045785336311	822.894626317154	95.977529538518	598.123485147808	733.035162892367	36.847121520816	636.180198678738	941.957152966492	40.851349528603	632.076417519771	989.431927679681	39.891335006235	378.106427920088	1072.463185177053	39.926752672692	306.868038056710	1146.859754534653	108.528225356533	340.193331058374	1280.264342614138	66.656826852072	328.448164200814	793.233193482680	1097.353813197479	205.208795640444	724.404692420088	848.956296232656	255.588417564381	1171.160708233347	1136.720838906998	718.981301168021	1336.117503841354	1288.959819016598	618.083614728190	
125	42.598285714286	763.339747386649	1014.588528990302	482.620925303744	980.378268530429	1401.156299895844	270.091248951645	1086.761104514275	1328.005980591194	428.165661788009	1027.480940725767	1428.014318304274	597.395569945326	987.684861236030	1471.571408920175	422.160168532458	977.736394630052	924.778964140266	602.248718899944	967.988054999995	930.951299438113	327.138720761859	973.227889474811	713.932955996656	581.765139342650	866.739190689105	626.444181232597	643.058250888445	928.347720499448	556.670714576829	564.974471525863	907.964883830172	471.408650955752	570.893926653792	1038.214124179019	764.826303779374	375.847469745365	1003.057938362351	636.698010796169	292.173193318070	1100.850364353790	580.926917831311	367.009905043405	1125.703478666441	509.781748243877	366.333285012908	1102.889830985318	434.287966866722	351.658630854903	1029.070445737631	312.411453016633	291.167531174202	1096.501604454597	204.271129044862	355.467563724701	866.037742446227	389.044377438944	580.721554627159	778.176644746805	301.220029618968	646.743040564454	800.636466834404	199.281602409967	585.595368298936	644.296064495440	44.829922904449	559.230657059131	815.222389399238	96.044794576011	598.069162537279	725.125357863168	37.205680847462	636.219370010409	934.046859437305	40.577067489494	632.131272410867	988.665652262943	37.312105543970	379.039003399976	1071.391327869231	37.240021541385	307.327285685993	1146.221629374378	104.849562511864	340.799753978511	1279.413823173104	62.180487962009	328.463106457736	793.108241135454	1097.391776352192	203.476993436678	722.979304981599	849.334014130989	254.075681761702	1174.719748142012	1138.532387261645	715.119871308869	1330.367914626605	1299.559269534739	614.310848582502	
126	42.609642857143	765.166578835313	1012.977216469260	479.145977179765	981.017947774457	1400.516378716442	267.489479393295	1087.197324227019	1328.175225189032	425.964990332796	1026.421129786754	1427.509218109822	595.047948356964	987.579361957163	1471.009489869975	419.696260626480	979.692517716058	923.716759259081	599.238110799397	970.784215899042	929.810665810013	324.571933543739	974.570998322410	712.505744259356	579.100409629583	867.426769588103	625.375456124012	640.694607466657	928.735451026464	555.075846683258	562.931699156216	907.861270557554	468.994060004557	569.109070170974	1040.617893237168	762.149109152223	372.834737691198	1002.739238807257	634.457361776531	289.984674459160	1100.285539120152	577.980072032061	364.456526556050	1123.637384984485	506.789432838143	364.548015597391	1101.382761283339	431.270339135685	350.058549273778	1027.419582437280	309.337699079659	290.261024299146	1094.269937564653	201.455899827783	355.277050406065	864.069130018624	387.536958881385	579.271401715695	774.634027647109	301.540166910091	645.765567319426	795.135297879740	199.041871582482	585.061638274958	636.413705538918	46.376405018268	559.486500125370	807.822594174645	96.176257734151	598.063195783566	717.317582024442	37.903606764349	636.287940193441	926.175350818857	40.182033216362	632.160458723405	985.110369160845	36.088577688777	379.907305975672	1067.504238525860	35.576800009987	307.714684241956	1143.103111057660	101.854320355102	341.346232094793	1275.872523647740	57.787538408074	328.343109552885	793.848170697923	1096.865919970515	201.547886364783	722.825524154247	849.017033978341	252.166904077441	1177.292901804769	1139.779299447777	711.602123683461	1324.130534492298	1308.404943871757	610.929830269673	
127	42.621000000000	766.749040421458	1011.735696124794	475.667258634077	981.712739173156	1400.064399512176	264.798223229516	1087.684728228452	1328.472339221903	423.667997638693	1025.564243980434	1427.172658696743	592.672437787118	987.621956308485	1470.682075410601	417.151990073719	981.448058169367	922.897539445772	596.094254996117	973.322944056562	929.076646959819	321.830136637864	976.177892030242	711.406458878382	576.241273166414	868.738377594269	624.418384887862	638.261096980881	929.989491812355	553.683487149514	560.858816657625	908.855743459117	466.547509891790	567.505350183662	1043.277372338062	760.623912940354	369.653985730819	1002.933583722960	633.157906622015	287.807099232530	1100.378468066294	576.080408158076	361.606339261960	1122.342153556043	504.645947408973	362.596199947232	1100.275001881227	428.909940100728	348.588864599078	1025.613867083240	307.412186293126	289.147668929212	1090.830976541145	199.372882042232	355.076822306774	862.925769729964	386.149384221773	577.911260318559	771.712146923619	302.237605375985	644.796695797476	790.155082241306	199.145302166965	584.612299426702	628.724333016158	48.779810764673	559.798973736967	800.783279747224	96.404591297177	598.111623930864	709.657017065853	39.064090535648	636.375225640396	918.351188165930	39.645410636987	632.149542196129	979.353972343644	35.862637627354	380.594849538209	1061.449067353814	34.734680149605	307.977735887382	1137.972975668681	99.577924820959	341.791485647837	1270.230559508636	53.822655921364	328.144422425930	795.508369617948	1095.813931611566	199.396486921081	724.035109562862	848.030656034261	249.880365397275	1178.822619337698	1140.392135851367	708.489573409664	1317.562543778722	1315.481193618375	607.921156029546	
